<svg width="40" height="40" viewBox="0 0 40 40" fill="none" xmlns="http://www.w3.org/2000/svg">
<path d="M20.0002 7.5C19.2266 7.5 18.4847 7.80729 17.9378 8.35427C17.3908 8.90125 17.0835 9.64312 17.0835 10.4167C17.0835 11.1902 17.3908 11.9321 17.9378 12.4791C18.4847 13.026 19.2266 13.3333 20.0002 13.3333C20.7737 13.3333 21.5156 13.026 22.0626 12.4791C22.6095 11.9321 22.9168 11.1902 22.9168 10.4167C22.9168 9.64312 22.6095 8.90125 22.0626 8.35427C21.5156 7.80729 20.7737 7.5 20.0002 7.5ZM14.5835 10.4167C14.5835 8.98008 15.1542 7.60233 16.17 6.5865C17.1858 5.57068 18.5636 5 20.0002 5C21.4368 5 22.8145 5.57068 23.8303 6.5865C24.8461 7.60233 25.4168 8.98008 25.4168 10.4167C25.4168 11.8533 24.8461 13.231 23.8303 14.2468C22.8145 15.2626 21.4368 15.8333 20.0002 15.8333C18.5636 15.8333 17.1858 15.2626 16.17 14.2468C15.1542 13.231 14.5835 11.8533 14.5835 10.4167ZM8.3335 10.8333C7.67045 10.8333 7.03457 11.0967 6.56573 11.5656C6.09689 12.0344 5.8335 12.6703 5.8335 13.3333C5.8335 13.9964 6.09689 14.6323 6.56573 15.1011C7.03457 15.5699 7.67045 15.8333 8.3335 15.8333C8.99654 15.8333 9.63242 15.5699 10.1013 15.1011C10.5701 14.6323 10.8335 13.9964 10.8335 13.3333C10.8335 12.6703 10.5701 12.0344 10.1013 11.5656C9.63242 11.0967 8.99654 10.8333 8.3335 10.8333ZM3.3335 13.3333C3.3335 12.0073 3.86028 10.7355 4.79796 9.7978C5.73564 8.86012 7.00741 8.33333 8.3335 8.33333C9.65958 8.33333 10.9313 8.86012 11.869 9.7978C12.8067 10.7355 13.3335 12.0073 13.3335 13.3333C13.3335 14.6594 12.8067 15.9312 11.869 16.8689C10.9313 17.8065 9.65958 18.3333 8.3335 18.3333C7.00741 18.3333 5.73564 17.8065 4.79796 16.8689C3.86028 15.9312 3.3335 14.6594 3.3335 13.3333ZM29.1668 13.3333C29.1668 12.6703 29.4302 12.0344 29.8991 11.5656C30.3679 11.0967 31.0038 10.8333 31.6668 10.8333C32.3299 10.8333 32.9658 11.0967 33.4346 11.5656C33.9034 12.0344 34.1668 12.6703 34.1668 13.3333C34.1668 13.9964 33.9034 14.6323 33.4346 15.1011C32.9658 15.5699 32.3299 15.8333 31.6668 15.8333C31.0038 15.8333 30.3679 15.5699 29.8991 15.1011C29.4302 14.6323 29.1668 13.9964 29.1668 13.3333ZM31.6668 8.33333C30.3407 8.33333 29.069 8.86012 28.1313 9.7978C27.1936 10.7355 26.6668 12.0073 26.6668 13.3333C26.6668 14.6594 27.1936 15.9312 28.1313 16.8689C29.069 17.8065 30.3407 18.3333 31.6668 18.3333C32.9929 18.3333 34.2647 17.8065 35.2024 16.8689C36.14 15.9312 36.6668 14.6594 36.6668 13.3333C36.6668 12.0073 36.14 10.7355 35.2024 9.7978C34.2647 8.86012 32.9929 8.33333 31.6668 8.33333ZM12.5002 21.25C12.5002 19.64 13.8068 18.3333 15.4168 18.3333H24.5835C26.1935 18.3333 27.5002 19.64 27.5002 21.25V27.5C27.5002 29.4891 26.71 31.3968 25.3035 32.8033C23.8969 34.2098 21.9893 35 20.0002 35C18.011 35 16.1034 34.2098 14.6969 32.8033C13.2903 31.3968 12.5002 29.4891 12.5002 27.5V21.25ZM15.4168 20.8333C15.3063 20.8333 15.2003 20.8772 15.1222 20.9554C15.0441 21.0335 15.0002 21.1395 15.0002 21.25V27.5C15.0002 28.8261 15.5269 30.0979 16.4646 31.0355C17.4023 31.9732 18.6741 32.5 20.0002 32.5C21.3262 32.5 22.598 31.9732 23.5357 31.0355C24.4734 30.0979 25.0002 28.8261 25.0002 27.5V21.25C25.0002 21.1395 24.9563 21.0335 24.8781 20.9554C24.8 20.8772 24.694 20.8333 24.5835 20.8333H15.4168ZM11.0168 19.9633C10.8957 20.3733 10.8346 20.8022 10.8335 21.25V22.6L6.1435 23.8567C6.03676 23.8852 5.94571 23.9549 5.89039 24.0506C5.83507 24.1462 5.82 24.2599 5.8485 24.3667L7.03516 28.795C7.33953 29.931 8.03456 30.9233 8.9981 31.5975C9.96164 32.2718 11.132 32.5848 12.3035 32.4817C12.8285 33.2917 13.4785 34.0133 14.2252 34.6183C13.2553 34.9399 12.2299 35.0599 11.212 34.971C10.194 34.882 9.20502 34.586 8.3056 34.1011C7.40618 33.6162 6.61533 32.9527 5.98158 32.1511C5.34783 31.3496 4.88455 30.427 4.62016 29.44L3.4335 25.0133C3.23341 24.2663 3.3382 23.4704 3.72482 22.8006C4.11143 22.1309 4.74822 21.642 5.49516 21.4417L11.0168 19.9633ZM25.7752 34.6183C25.9141 34.665 26.0546 34.7072 26.1968 34.745C28.1181 35.2596 30.1651 34.99 31.8876 33.9955C33.6101 33.0009 34.867 31.3629 35.3818 29.4417L36.5685 25.015C36.6678 24.645 36.6933 24.2591 36.6434 23.8792C36.5935 23.4994 36.4693 23.1331 36.2779 22.8013C36.0864 22.4694 35.8315 22.1786 35.5276 21.9453C35.2237 21.712 34.8769 21.5409 34.5068 21.4417L28.9835 19.9617C29.1046 20.3728 29.1657 20.8022 29.1668 21.25V22.6L33.8602 23.8567C33.9666 23.8855 34.0572 23.9555 34.1122 24.051C34.1672 24.1466 34.182 24.2601 34.1535 24.3667L32.9668 28.795C32.6624 29.9313 31.9671 30.9238 31.0032 31.5981C30.0394 32.2724 28.8686 32.5853 27.6968 32.4817C27.1726 33.2905 26.5241 34.0116 25.7752 34.6183Z" fill="white"/>
</svg>
