<svg width="40" height="40" viewBox="0 0 40 40" fill="none" xmlns="http://www.w3.org/2000/svg">
<path d="M15.0316 15C14.8614 12.7929 15.3714 10.5866 16.4931 8.67807C17.6147 6.76957 19.2941 5.25049 21.3051 4.32529C23.3162 3.40009 25.5625 3.11319 27.7415 3.50321C29.9206 3.89323 31.9279 4.94144 33.4932 6.50676C35.0585 8.07207 36.1067 10.0794 36.4967 12.2584C36.8867 14.4375 36.5998 16.6837 35.6746 18.6948C34.7494 20.7059 33.2304 22.3853 31.3219 23.5069C29.4134 24.6285 27.2071 25.1385 24.9999 24.9683" stroke="white" stroke-width="2.5" stroke-linecap="round" stroke-linejoin="round"/>
<path d="M36.6666 28.3334C36.6666 29.6595 36.1398 30.9312 35.2021 31.8689C34.2644 32.8066 32.9927 33.3334 31.6666 33.3334H28.3333M28.3333 33.3334L31.6666 30M28.3333 33.3334L31.6666 36.6667M3.33325 11.6667C3.33325 10.3406 3.86004 9.06886 4.79772 8.13117C5.7354 7.19349 7.00717 6.66671 8.33325 6.66671H11.6666M11.6666 6.66671L8.33325 10M11.6666 6.66671L8.33325 3.33337M14.1666 36.6667C11.2934 36.6667 8.53791 35.5253 6.50626 33.4937C4.47462 31.4621 3.33325 28.7066 3.33325 25.8334C3.33325 22.9602 4.47462 20.2047 6.50626 18.173C8.53791 16.1414 11.2934 15 14.1666 15C17.0398 15 19.7953 16.1414 21.8269 18.173C23.8586 20.2047 24.9999 22.9602 24.9999 25.8334C24.9999 28.7066 23.8586 31.4621 21.8269 33.4937C19.7953 35.5253 17.0398 36.6667 14.1666 36.6667Z" stroke="white" stroke-width="2.5" stroke-linecap="round" stroke-linejoin="round"/>
</svg>
