<svg width="36" height="36" viewBox="0 0 36 36" fill="none" xmlns="http://www.w3.org/2000/svg">
<path d="M17.9999 34.6667C18.4066 34.6667 18.7849 34.4784 19.5433 34.1L25.6266 31.0717C28.3216 29.7334 29.6666 29.0617 29.6666 28V14.6667M17.9999 34.6667C17.5933 34.6667 17.2149 34.4784 16.4566 34.1L10.3733 31.0717C7.67825 29.7334 6.33325 29.0617 6.33325 28V14.6667M17.9999 34.6667V21.3334M29.6666 14.6667C29.6666 13.605 28.3199 12.935 25.6283 11.595L19.5433 8.56504C18.7833 8.18837 18.4066 8.00004 17.9999 8.00004M29.6666 14.6667C29.6666 15.7284 28.3199 16.3984 25.6283 17.7384L19.5433 20.7684C18.7849 21.145 18.4066 21.3334 17.9999 21.3334M6.33325 14.6667C6.33325 13.605 7.67825 12.9334 10.3733 11.595L16.4566 8.56671C17.2149 8.18837 17.5933 8.00004 17.9999 8.00004M6.33325 14.6667C6.33325 15.7284 7.67992 16.3984 10.3716 17.7384L16.4566 20.7684C17.2149 21.145 17.5933 21.3334 17.9999 21.3334M17.9999 8.00004V1.33337M34.6666 33L29.6666 28.8334M1.33325 33L6.33325 28.8334" stroke="white" stroke-width="1.5" stroke-linecap="round" stroke-linejoin="round"/>
</svg>
