<svg width="40" height="40" viewBox="0 0 40 40" fill="none" xmlns="http://www.w3.org/2000/svg">
<path fill-rule="evenodd" clip-rule="evenodd" d="M21.925 5.59998C20.8067 5.01665 19.2917 5.00832 18.1634 5.58998C13.8417 7.82332 9.92171 10.3816 6.48671 13.22C5.95505 13.6583 5.57838 14.2966 5.58505 15.0466C5.59171 15.795 5.97505 16.4233 6.50338 16.855C9.91005 19.64 13.8334 22.2016 18.075 24.4166C19.195 25 20.7084 25.0083 21.8367 24.4266C26.1584 22.1933 30.0784 19.635 33.5134 16.7966C34.045 16.3583 34.4217 15.72 34.415 14.97C34.4084 14.2217 34.0234 13.5933 33.4967 13.1616C30.09 10.3766 26.1667 7.81498 21.925 5.59998ZM19.3084 7.81165C19.5383 7.70943 19.7873 7.65703 20.0389 7.65789C20.2905 7.65875 20.5392 7.71286 20.7684 7.81665C24.8167 9.92998 28.5467 12.3616 31.7784 14.9866C28.5284 17.655 24.8084 20.0783 20.69 22.205C20.29 22.4116 19.635 22.41 19.2317 22.2C15.1834 20.0866 11.4534 17.655 8.22005 15.03C11.4717 12.3616 15.1917 9.93832 19.31 7.81165" fill="white"/>
<path d="M35.3285 21.1633C35.5039 21.4445 35.5605 21.7837 35.4858 22.1066C35.4111 22.4294 35.2112 22.7094 34.9302 22.885L24.7519 29.24C23.3702 30.1033 21.6569 30.5016 20.0002 30.5016C18.3435 30.5016 16.6302 30.1016 15.2485 29.2416L5.18187 22.9583C4.90052 22.7828 4.7004 22.5027 4.62554 22.1797C4.55068 21.8567 4.60722 21.5171 4.7827 21.2358C4.95819 20.9544 5.23825 20.7543 5.56128 20.6795C5.88431 20.6046 6.22385 20.6611 6.5052 20.8366L16.5719 27.12C17.4785 27.6866 18.7102 28.0016 20.0002 28.0016C21.2885 28.0016 22.5202 27.685 23.4269 27.1183L33.6069 20.765C33.888 20.5896 34.2273 20.533 34.5502 20.6077C34.873 20.6824 35.153 20.8823 35.3285 21.1633Z" fill="white"/>
<path d="M35.3281 27.4216C35.5035 27.7028 35.5601 28.0421 35.4854 28.3649C35.4107 28.6878 35.2108 28.9678 34.9298 29.1433L26.1165 34.65C24.3531 35.75 22.1498 36.2683 19.9998 36.2683C17.8531 36.2683 15.6498 35.7516 13.8848 34.6516L5.18148 29.2183C4.90012 29.0426 4.7001 28.7623 4.62539 28.4391C4.55069 28.116 4.60744 27.7763 4.78314 27.495C4.95885 27.2136 5.23912 27.0136 5.56231 26.9389C5.8855 26.8642 6.22512 26.9209 6.50648 27.0966L15.2098 32.53C16.4981 33.335 18.2215 33.7683 20.0015 33.7683C21.7815 33.7683 23.5048 33.335 24.7931 32.53L33.6065 27.025C33.7458 26.9379 33.9008 26.8791 34.0629 26.852C34.2249 26.8249 34.3907 26.83 34.5507 26.8669C34.7108 26.9039 34.8619 26.9721 34.9956 27.0676C35.1293 27.1631 35.2429 27.2839 35.3298 27.4233" fill="white"/>
</svg>
