<svg width="40" height="40" viewBox="0 0 40 40" fill="none" xmlns="http://www.w3.org/2000/svg">
<path d="M35 37.5H5C3.625 37.5 2.5 36.375 2.5 35V20H5V35H35V5H20V2.5H35C36.375 2.5 37.5 3.625 37.5 5V35C37.5 36.375 36.375 37.5 35 37.5ZM28.125 15.125L20.625 11.375C20.25 11.25 19.875 11.25 19.5 11.375L12 15.125C11.625 15.375 11.375 15.75 11.25 16.25V25C11.25 25.5 11.5 25.875 12 26.125L19.5 29.875C19.875 30 20.25 30 20.625 29.875L28.125 26.125C28.5 25.875 28.75 25.5 28.875 25V16.25C28.875 15.75 28.625 15.375 28.25 15.125H28.125ZM20 13.875L24.75 16.25L20 18.625L15.25 16.25L20 13.875ZM13.75 18.25L18.75 20.75V26.75L13.75 24.25V18.25ZM21.25 26.75V20.75L26.25 18.25V24.25L21.25 26.75ZM0 12.5H6.25V15H0V12.5ZM15 0V6.25H12.5V0H15ZM4.25 2.5L8.625 6.875L6.875 8.625L2.5 4.25L4.25 2.5Z" fill="white"/>
</svg>
